<svg id="Layer_1" data-name="Layer 1" xmlns="http://www.w3.org/2000/svg" viewBox="0 0 104 96"><defs><style>.cls-1{fill:none;}</style></defs><title>calendar</title><rect class="cls-1" x="24" y="68" width="8" height="8"/><rect class="cls-1" x="72" y="52" width="8" height="8"/><rect class="cls-1" x="24" y="52" width="8" height="8"/><rect class="cls-1" x="24" y="36" width="8" height="8"/><rect class="cls-1" x="72" y="36" width="8" height="8"/><rect class="cls-1" x="56" y="68" width="8" height="8"/><rect class="cls-1" x="40" y="36" width="8" height="8"/><rect class="cls-1" x="40" y="68" width="8" height="8"/><rect class="cls-1" x="40" y="52" width="8" height="8"/><rect class="cls-1" x="56" y="36" width="8" height="8"/><rect fill="#bbbfc7" class="cls-1" x="56" y="52" width="8" height="8"/><path fill="#bbbfc7" d="M16,4V8H4a4,4,0,0,0-4,4V92a4,4,0,0,0,4,4h96a4,4,0,0,0,4-4V12a4,4,0,0,0-4-4H88V4a4,4,0,0,0-8,0V8H24V4a4,4,0,0,0-8,0ZM48,52v8H40V52Zm-8-8V36h8v8Zm8,24v8H40V68ZM64,52v8H56V52Zm-8-8V36h8v8Zm8,24v8H56V68ZM80,36v8H72V36Zm0,16v8H72V52ZM32,68v8H24V68Zm-8-8V52h8v8Zm8-16H24V36h8Z"/></svg>