<svg id="Layer_1" data-name="Layer 1" xmlns="http://www.w3.org/2000/svg" xmlns:xlink="http://www.w3.org/1999/xlink" viewBox="0 0 100 97.41"><defs><style>.cls-1{fill:none;}.cls-2{clip-path:url(#clip-path);}</style><clipPath id="clip-path" transform="translate(4.97 4.19)"><path class="cls-1" d="M66.5,37.33c0,6.43-6.43,6.43-6.43,6.43H30c-6.43,0-6.43-6.43-6.43-6.43V7.24C23.56.81,30,.81,30,.81H60.07c6.43,0,6.43,6.43,6.43,6.43ZM90,81.8c0,6.43-6.43,6.43-6.43,6.43H6.46C0,88.23,0,81.8,0,81.8V30.37c0-6.43,6.43-6.43,6.43-6.43h11V44.35s0,6.43,6.43,6.43H66.19s6.42,0,6.42-6.43V23.94h11C90,23.94,90,30.37,90,30.37ZM79,71.87a6.43,6.43,0,1,0-6.43,6.43A6.42,6.42,0,0,0,79,71.87Z"/></clipPath></defs><title>fax</title><g class="cls-2"><rect fill="#e31d23" width="100" height="97.41"/></g></svg>