<?xml version="1.0" encoding="utf-8"?>
<!-- Generator: Adobe Illustrator 23.0.1, SVG Export Plug-In . SVG Version: 6.00 Build 0)  -->
<svg version="1.1" id="Layer_1" xmlns="http://www.w3.org/2000/svg" xmlns:xlink="http://www.w3.org/1999/xlink" x="0px" y="0px"
	 viewBox="0 0 1261 240" style="enable-background:new 0 0 1261 240;" xml:space="preserve">
<style type="text/css">
	.st0{fill-rule:evenodd;clip-rule:evenodd;fill:#F6F7F8;}
	.st1{fill-rule:evenodd;clip-rule:evenodd;fill:#DDE0E6;}
	.st2{fill:#DDE0E6;}
</style>
<title>bg</title>
<desc>Created with Sketch.</desc>
<g id="Page-1">
	<g id="bg">
		<polygon class="st0" points="0,240 1257,239 1257,4 1102,39 953,53 797,91 640,109 486,159 328,174 174,193 15,234 		"/>
		<polygon id="Path" class="st1" points="17.5,235.4 17,233.4 171.1,194.1 171.2,194.1 325.7,174.4 480.7,160.3 635.5,108.6 
			635.6,108.6 790.1,92.6 945.8,53.2 945.9,53.2 1098.5,39.3 1252.9,4 1253.3,6 1098.8,41.3 1098.8,41.3 946.1,55.2 790.5,94.6 
			790.4,94.6 635.9,110.6 481.1,162.3 481,162.3 325.9,176.4 171.5,196.1 		"/>
		<circle id="Oval" class="st2" cx="1257" cy="4" r="4"/>
	</g>
</g>
</svg>
