<svg id="Layer_1" data-name="Layer 1" xmlns="http://www.w3.org/2000/svg" xmlns:xlink="http://www.w3.org/1999/xlink" viewBox="0 0 140 140"><defs><style>.cls-1,.cls-2,.cls-3{fill:#37a2f2;}.cls-1{clip-rule:evenodd;}.cls-3{fill-rule:evenodd;}.cls-4{clip-path:url(#clip-path);}.cls-5{clip-path:url(#clip-path-2);}</style><clipPath id="clip-path" transform="translate(34 21)"><path class="cls-1" d="M71.07,26.39a4.65,4.65,0,0,1-3,5.86L51.64,37.6a4.65,4.65,0,1,1-2.87-8.85L65.21,23.4A4.67,4.67,0,0,1,71.07,26.39ZM57.66,67.69a4.67,4.67,0,0,1-6.5-1L41,52.67a4.65,4.65,0,1,1,7.52-5.47l10.17,14A4.67,4.67,0,0,1,57.66,67.69Zm-43.42,0a4.67,4.67,0,0,1-1-6.5l10.17-14a4.65,4.65,0,1,1,7.52,5.47l-10.16,14A4.67,4.67,0,0,1,14.24,67.69ZM.82,26.39a4.68,4.68,0,0,1,5.86-3l16.45,5.35a4.65,4.65,0,1,1-2.88,8.85L3.81,32.25A4.66,4.66,0,0,1,.82,26.39ZM36,.87A4.66,4.66,0,0,1,40.6,5.52v17.3a4.65,4.65,0,1,1-9.3,0V5.52A4.66,4.66,0,0,1,36,.87Z"/></clipPath><clipPath id="clip-path-2" transform="translate(34 21)"><rect class="cls-2" x="-34" y="-21" width="140" height="140"/></clipPath></defs><title>kyivstar</title><path class="cls-3" d="M71.07,26.39a4.65,4.65,0,0,1-3,5.86L51.64,37.6a4.65,4.65,0,1,1-2.87-8.85L65.21,23.4A4.67,4.67,0,0,1,71.07,26.39ZM57.66,67.69a4.67,4.67,0,0,1-6.5-1L41,52.67a4.65,4.65,0,1,1,7.52-5.47l10.17,14A4.67,4.67,0,0,1,57.66,67.69Zm-43.42,0a4.67,4.67,0,0,1-1-6.5l10.17-14a4.65,4.65,0,1,1,7.52,5.47l-10.16,14A4.67,4.67,0,0,1,14.24,67.69ZM.82,26.39a4.68,4.68,0,0,1,5.86-3l16.45,5.35a4.65,4.65,0,1,1-2.88,8.85L3.81,32.25A4.66,4.66,0,0,1,.82,26.39ZM36,.87A4.66,4.66,0,0,1,40.6,5.52v17.3a4.65,4.65,0,1,1-9.3,0V5.52A4.66,4.66,0,0,1,36,.87Z" transform="translate(34 21)"/><g class="cls-4"><rect class="cls-2" width="140" height="140"/><g class="cls-5"><rect class="cls-2" x="29.59" y="16.87" width="80.71" height="77.7"/></g></g></svg>