<svg xmlns="http://www.w3.org/2000/svg" viewBox="0 0 300 300">
    <style>.a{fill:#0c4ea3;}</style>
    <title>lifecell-logo</title>
    <g transform="matrix(0.90995 0 0 0.92063 -440.87 568.84)">
        <ellipse rx="164.84" ry="162.93" cy="-453.86" cx="649.34" fill="#ffcb08"/>
        <path d="m737.39-501.95c-20.08 0-36.35 16.13-36.35 36.03 0 0.06 0 0.12 0.01 0.18-64.99 18.74-128.79 66.23-160.41 134.39 16.92 14.84 36.82 25.75 58.32 32.69 12.03-71.36 64.9-125.63 110.89-143.8 6.89 7.97 16.95 12.56 27.54 12.58 20.08 0 36.35-16.13 36.35-36.03 0-19.9-16.27-36.03-36.35-36.03z" class="a"/>
        <path d="m622.81-570.58c-20.08 0-36.35 16.13-36.35 36.03 0 0.81 0.03 1.62 0.09 2.43-45.16 17.66-79.56 46.99-101.99 82.45 0.97 31.59 10.72 62.24 28.94 88.11 1.66-57.95 30.87-113.47 80.71-150.78 6.89 8.72 17.44 13.81 28.61 13.82 20.08 0 36.35-16.13 36.35-36.03 0-19.9-16.27-36.03-36.35-36.03z" class="a"/>
    </g>
</svg>
