<?xml version="1.0" encoding="utf-8"?>
<!-- Generator: Adobe Illustrator 23.0.1, SVG Export Plug-In . SVG Version: 6.00 Build 0)  -->
<svg version="1.1" id="Layer_1" xmlns="http://www.w3.org/2000/svg" xmlns:xlink="http://www.w3.org/1999/xlink" x="0px" y="0px"
	 viewBox="0 0 88 88" style="enable-background:new 0 0 88 88;" xml:space="preserve">
<style type="text/css">
	.st0{clip-path:url(#SVGID_2_);}
</style>
<g>
	<defs>
		<path id="SVGID_1_" d="M54.1,21.2L71.2,3.3c3.8-4,10.3-3.9,13.9,0.2c3.5,3.8,2.9,10-0.8,13.6L66.8,33.9L72,75
			c0.1,0.4-0.1,0.6-0.3,0.8l-7.4,7.4c-0.3,0.3-0.8,0.2-1-0.1L48.2,51.8L33.7,65.8l1.7,15.7c0.1,0.4-0.1,0.6-0.3,0.8l-4.7,4.7
			c-0.4,0.4-0.9,0.2-1.1-0.2l-8.2-19.2c-0.1-0.3-0.3-0.4-0.6-0.6L1.1,58.7c-0.4-0.3-0.5-0.8-0.2-1.1l4.7-4.7
			c0.2-0.2,0.6-0.3,0.8-0.3l15.8,1.7l13.9-14.5L5,24.6c-0.4-0.2-0.4-0.7-0.1-1l7.4-7.4c0.2-0.2,0.6-0.3,0.8-0.3L54.1,21.2z"/>
	</defs>
	<clipPath id="SVGID_2_">
		<use xlink:href="#SVGID_1_"  style="overflow:visible;"/>
	</clipPath>
	<rect fill="#264796" x="-4.3" y="-4.6" class="st0" width="96.7" height="96.8"/>
</g>
</svg>
