<?xml version="1.0" encoding="utf-8"?>
<!-- Generator: Adobe Illustrator 23.0.1, SVG Export Plug-In . SVG Version: 6.00 Build 0)  -->
<svg version="1.1" id="Layer_1" xmlns="http://www.w3.org/2000/svg" xmlns:xlink="http://www.w3.org/1999/xlink" x="0px" y="0px"
	 viewBox="0 0 66 66" style="enable-background:new 0 0 66 66;" xml:space="preserve">
<style type="text/css">
	.st0{clip-path:url(#SVGID_2_);}
</style>
<g>
	<defs>
		<path id="SVGID_1_" d="M54,11.9L54,11.9c-1.3-1.3-3.1-2-4.9-1.9c-1.8,0-3.6,0.8-4.8,2.2c-2.3,2.4-2.6,7.4-0.5,9.5
			c2.9,2.7,7.4,2.7,10.3-0.1c1.3-1.3,2-3,2-4.9C56,14.9,55.3,13.2,54,11.9z M63.4,19.4c-3.9,11.3-11.9,19-22.1,24.6
			c-2.5,1.3-5,2.5-7.7,3.4c-0.9,0.5-2,0.2-2.6-0.5L19.2,35c-0.8-0.6-1-1.6-0.6-2.4c4.6-12.3,12-22.5,24.2-28.4
			c6.4-3,13.4-4.3,20.4-3.8c1.5,0.1,2.1,0.5,2.3,2.3C66,8.3,65.3,14,63.4,19.4z M4.5,24.7c5-4.8,9.8-7.5,15.6-7.9
			c1-0.1,2.1-0.4,2.7,0.6c0.6,1-0.2,1.8-0.7,2.6c-1.9,3.1-3.5,6.4-4.9,9.8c-0.5,1.4-1.1,1.7-2.4,1c-4.1-2.2-8-2.1-11.8,0.6
			c-0.5,0.6-1.3,0.6-1.9,0.2c-0.5-0.5-0.5-1.4,0-1.9C2,27.9,3.2,26.2,4.5,24.7z M41.7,61c-1.6,1.6-3.4,2.9-5.3,3.9
			c-0.7,0.4-1.5,0.7-2.1,0c-0.6-0.7-0.2-1.3,0.3-1.9c2.6-3.4,2.8-8,0.6-11.6c-0.8-1.4-0.4-2.1,1-2.6c3.6-1.4,7.1-3.1,10.3-5.1
			c1.9-1.2,2.7-0.7,2.7,1.6C49,51.3,46.3,56.4,41.7,61z M18.5,53.4c-2,0.6-3.9,1.3-5.7,1.9c-0.6,0.3-1.3,0.2-1.7-0.3
			c-0.4-0.5-0.5-1.1-0.3-1.7c0.5-1.9,1.2-3.9,1.9-6.1c-0.9,0.1-1.7,0.1-2.4,0.2c-0.6,0-1.2-0.3-1.3-0.9c-0.2-0.6-0.1-1.2,0.4-1.6
			l4.5-4.5c0.3-0.4,0.9-0.6,1.4-0.4c0.5,0.1,0.9,0.5,1.1,1c1.4,4.2,4.7,7.5,8.9,8.9c0.5,0.1,0.9,0.6,1,1.1c0.1,0.5-0.1,1.1-0.5,1.4
			l-4.5,4.5c-0.4,0.5-1.1,0.6-1.6,0.4c-0.5-0.2-0.8-0.7-0.8-1.3C18.7,55,18.7,54.2,18.5,53.4z"/>
	</defs>
	<clipPath id="SVGID_2_">
		<use xlink:href="#SVGID_1_"  style="overflow:visible;"/>
	</clipPath>
	<rect fill="#e31d23" x="-4.3" y="-4.7" class="st0" width="74.9" height="75.1"/>
</g>
</svg>
