<svg id="Layer_1" data-name="Layer 1" xmlns="http://www.w3.org/2000/svg" xmlns:xlink="http://www.w3.org/1999/xlink" viewBox="0 0 94.01 94.08"><defs><style>.cls-1,.cls-2{fill:none;}.cls-1{clip-rule:evenodd;}.cls-3{clip-path:url(#clip-path);}.cls-4{clip-path:url(#clip-path-2);}</style><clipPath id="clip-path" transform="translate(4.01 4.04)"><path class="cls-1" d="M42.93,41.71a1.26,1.26,0,0,0,0,2.51C44.54,44.13,44.55,41.62,42.93,41.71Z"/></clipPath><clipPath id="clip-path-2" transform="translate(4.01 4.04)"><path class="cls-2" d="M42.93,48.22h0l-6.66,6.67c-1.84,1.84-3.84,1.95-6.37,2.49-1,.21-2.29-.7-1.84-1.85,1-2.5,1.61-4.51,3.5-6.39L37.67,43v0a5.54,5.54,0,0,1,1.56-3.65l0-14.63C39.26,20.5,40,18,41.48,14a1.51,1.51,0,0,1,2.89,0c1.47,4,2.26,6.6,2.26,10.81V39.27A4.68,4.68,0,0,1,48.18,43C48,45.69,45.89,48.38,42.93,48.22ZM61.81,5.46A42.08,42.08,0,0,0,42.93,1C22.32,1.31,3.78,16.59,1.3,37.47A42.58,42.58,0,0,0,33.07,83.79c20.5,5.29,41.37-6.77,49.11-25.9C90.23,38,80.35,15.15,61.81,5.46Z"/></clipPath></defs><title>time</title><g class="cls-3"><rect fill="#bbbfc7" x="40.72" y="40.74" width="12.43" height="12.51"/></g><g class="cls-4"><rect fill="#bbbfc7" width="94.01" height="94.08"/></g></svg>