<svg id="Layer_1" data-name="Layer 1" xmlns="http://www.w3.org/2000/svg" xmlns:xlink="http://www.w3.org/1999/xlink" viewBox="0 0 25.63 25.63"><defs><style>.cls-1{fill:none;clip-rule:evenodd;}.cls-2{clip-path:url(#clip-path);}.cls-3{fill:#ee3023;}.cls-4{clip-path:url(#clip-path-2);}.cls-5{fill:#fff;}</style><clipPath id="clip-path" transform="translate(4.5 4.5)"><path class="cls-1" d="M16.13,8.31A7.82,7.82,0,1,1,8.31.5a7.82,7.82,0,0,1,7.82,7.81"/></clipPath><clipPath id="clip-path-2" transform="translate(4.5 4.5)"><path class="cls-1" d="M8.37,12.67A4.56,4.56,0,0,1,4,7.9,6.63,6.63,0,0,1,6.37,3,7.79,7.79,0,0,1,11.1,1.19a2.18,2.18,0,0,1,.56.06A3.26,3.26,0,0,0,9.11,4.37s0,.1,0,.13c2.38.58,3.46,2,3.47,4a4.19,4.19,0,0,1-4.22,4.17"/></clipPath></defs><title>vodafone</title><g class="cls-2"><rect class="cls-3" width="25.63" height="25.63"/></g><g class="cls-4"><rect class="cls-5" x="3.49" y="0.69" width="18.6" height="21.48"/></g></svg>